<?xml version="1.0" encoding="iso-8859-1"?>
<!-- Generator: Adobe Illustrator 19.0.0, SVG Export Plug-In . SVG Version: 6.00 Build 0)  -->
<svg version="1.1" id="Capa_1" xmlns="http://www.w3.org/2000/svg" xmlns:xlink="http://www.w3.org/1999/xlink" x="0px" y="0px"
	 viewBox="0 0 512 512" style="enable-background:new 0 0 512 512;" xml:space="preserve">
	<g transform="matrix(1.25 0 0 -1.25 0 45)">
		<g>
			<path style="fill:#292F33;" d="M364.089-20.889H45.511C20.378-20.889,0-41.266,0-66.4v-204.8
				c0-25.134,20.378-45.511,45.511-45.511h318.578c25.134,0,45.511,20.378,45.511,45.511v204.8
				C409.6-41.266,389.222-20.889,364.089-20.889"/>
			<path style="fill:#292F33;" d="M176.356-89.156c-9.432,0-17.067-7.634-17.067-17.067c0-17.067,7.634-17.067,17.067-17.067
				s17.067,7.634,17.067,17.067S193.422-89.156,176.356-89.156"/>
			<path style="fill:#292F33;" d="M233.244-89.156c-17.067,0-17.067-7.634-17.067-17.067s7.646-17.067,17.067-17.067
				c9.421,0,17.067,0,17.067,17.067C250.311-96.79,242.665-89.156,233.244-89.156"/>
			<path style="fill:#292F33;" d="M204.8-134.667c-6.281,0-11.378-2.549-11.378-5.689s5.097-5.689,11.378-5.689
				s11.378,2.549,11.378,5.689S211.081-134.667,204.8-134.667"/>
		</g>
		<g>
			<path style="fill:#E6E7E8;" d="M330.183-247.079c-5.916,2.15-12.436-0.887-14.586-6.804l-77.551,28.228l77.562,28.217
				c2.15-5.905,8.659-8.943,14.575-6.793s8.954,8.658,6.804,14.575c-2.15,5.905-8.67,8.954-14.586,6.804
				c5.916,2.15,8.966,8.67,6.804,14.586c-2.15,5.905-8.67,8.954-14.575,6.793c-5.916-2.139-8.954-8.67-6.804-14.586L204.789-213.56
				l-103.026,37.501c2.15,5.916-0.887,12.447-6.804,14.586c-5.905,2.162-12.425-0.887-14.575-6.793
				c-2.162-5.916,0.887-12.436,6.804-14.586c-5.916,2.15-12.436-0.899-14.586-6.804c-2.15-5.916,0.887-12.425,6.804-14.575
				c5.916-2.15,12.425,0.887,14.575,6.793l77.551-28.217l-77.54-28.228c-2.15,5.916-8.67,8.954-14.586,6.804
				c-5.905-2.15-8.943-8.67-6.804-14.575c2.162-5.916,8.681-8.954,14.598-6.804c-5.916-2.15-8.966-8.681-6.804-14.586
				c2.139-5.916,8.681-8.943,14.575-6.804c5.905,2.162,8.954,8.681,6.804,14.586l103.014,37.49l103.026-37.49
				c-2.15-5.905,0.899-12.425,6.804-14.586c5.894-2.139,12.436,0.887,14.575,6.804c2.15,5.905-0.887,12.436-6.804,14.586
				c5.916-2.15,12.436,0.887,14.598,6.804C339.126-255.749,336.088-249.23,330.183-247.079"/>
			<path style="fill:#E6E7E8;" d="M233.244-123.289c-9.421,0-17.067,7.634-17.067,17.067s0,17.067,17.067,17.067
				c9.421,0,17.067-7.634,17.067-17.067C250.311-123.289,242.665-123.289,233.244-123.289 M204.8-146.044
				c-6.281,0-11.378,2.549-11.378,5.689s5.097,5.689,11.378,5.689s11.378-2.549,11.378-5.689S211.081-146.044,204.8-146.044
				 M176.356-123.289c-9.432,0-17.067,0-17.067,17.067c0,9.432,7.634,17.067,17.067,17.067c17.067,0,17.067-7.634,17.067-17.067
				S185.788-123.289,176.356-123.289 M204.8-43.644c-45.511,0-68.267-36.853-68.267-68.267c0-15.861,9.409-27.295,22.756-34.748
				V-168.8c0-6.292,5.097-11.378,11.378-11.378s11.378,5.086,11.378,11.378v13.835c3.755-0.819,7.566-1.434,11.378-1.843V-168.8
				c0-6.292,5.097-11.378,11.378-11.378s11.378,5.086,11.378,11.378v11.992c3.812,0.41,7.623,1.024,11.378,1.843V-168.8
				c0-6.292,5.086-11.378,11.378-11.378c6.292,0,11.378,5.086,11.378,11.378v22.141c13.346,7.452,22.756,18.887,22.756,34.748
				C273.067-80.497,250.311-43.644,204.8-43.644"/>
		</g>
	</g>
</svg>
